<svg xmlns:rdf="http://www.w3.org/1999/02/22-rdf-syntax-ns#" xmlns="http://www.w3.org/2000/svg" xmlns:cc="http://creativecommons.org/ns#" xmlns:dc="http://purl.org/dc/elements/1.1/" height="281.093017578125" width="320.4651184082031" version="1.1" style=""><rect id="backgroundrect" width="100%" height="100%" x="0" y="0" fill="none" stroke="none"/>

<g class="currentLayer" style=""><title>Layer 1</title><g id="svg_1" class="selected" fill="none" stroke="#d50b0b" stroke-opacity="1">
<path d="m0.0599966430664125,135.35799896240235 s20.753,-0.5896400000000002 31.132,-0.70756 c7.075,-0.08040000000000001 14.255,-1.2076 21.226,0 c3.4547,0.5984 6.7498000000000005,2.0102 9.9056,3.5378 c4.0054,1.9388 7.4395,4.8987 11.321,7.0754 c2.7598000000000003,1.5478 5.4411000000000005,3.4007 8.4906,4.2453 c2.9635,0.8208400000000001 6.5983,2.3499 9.1981,0.70752 c2.7772,-1.7545000000000002 2.8126,-5.9942 3.5378,-9.1981 c3.342,-14.767 2.1671,-30.205 3.5377,-45.283 c2.8978,-31.879 9.9057,-95.519 9.9057,-95.519 s2.9476,28.265 3.5377,42.453 c0.92136,22.151 -0.0724,44.34 0,66.509 c0.11800000000000002,36.085 -1.238,72.222 0.70756,108.25 c0.7541200000000001,13.967 4.2453,41.745 4.2453,41.745 s3.9997,-26.385 5.6604,-39.623 c2.185,-17.418 1.4178000000000002,-35.324 5.6604,-52.358 c0.92088,-3.6973000000000003 2.1026,-7.4626 4.2453,-10.613 c3.2838000000000003,-4.8285 7.6007,-9.2483 12.736,-12.028 c5.3324,-2.8868 12.02,-2.0936 17.689,-4.2453 c3.7485,-1.4228 7.6426,-2.9676 10.613,-5.6604 c6.3004,-5.7111 9.841,-13.896 14.151,-21.226 c4.7046,-8.0018 8.7825,-16.366 12.736,-24.764 c1.53,-3.2502 2.1538,-6.9849 4.2453,-9.9056 c1.8474,-2.5798 3.9036,-6.4514 7.0755,-6.368 c3.3343000000000003,0.08760000000000003 5.1441,4.3562 7.0755,7.0755 c4.3979,6.192 6.6914,13.638 9.9056,20.519 c3.3951000000000002,7.2685 5.3442,15.335 9.9057,21.934 c3.0344,4.39 6.6256,8.7838 11.321,11.321 c5.0868,2.7486 11.23,2.9450000000000003 16.981,3.5377 c10.792,1.1122 21.81,1.5572 32.547,0 c6.5728,-0.95328 14.07,-1.1847 20.708,-1.4151 c4.3462,-0.15080000000000002 20.038,0 20.038,NaN " stroke="#d50b0b" stroke-width="4px" fill="none" id="svg_2" fill-opacity="1" stroke-opacity="1"/>
</g></g></svg>